<?xml version="1.0" encoding="UTF-8"?>
<svg id="Layer_1" xmlns="http://www.w3.org/2000/svg" version="1.1" viewBox="0 0 1759.48 338.09">
  <!-- Generator: Adobe Illustrator 29.4.0, SVG Export Plug-In . SVG Version: 2.1.0 Build 152)  -->
  <defs>
    <style>
      .st0, .st1 {
        fill: #f1945a;
      }

      .st2 {
        fill: #2e485d;
      }

      .st2, .st1 {
        stroke: #fff;
        stroke-miterlimit: 10;
        stroke-width: 8px;
      }

      .st3 {
        fill: #fff;
      }
    </style>
  </defs>
  <polygon class="st3" points="379.28 48.51 445.01 48.51 445.01 92.33 423.1 92.33 423.1 70.42 401.19 70.42 401.19 136.15 423.1 136.15 423.1 114.24 445.01 114.24 445.01 158.05 379.28 158.05 379.28 48.51"/>
  <polygon class="st3" points="466.91 48.51 488.82 48.51 488.82 136.15 576.46 136.15 576.46 158.05 466.91 158.05 466.91 48.51"/>
  <path class="st3" d="M576.46,48.51v65.72h-65.72V48.51h65.72ZM532.64,92.33h21.91v-21.91h-21.91v21.91Z"/>
  <polygon class="st3" points="598.36 48.51 664.09 48.51 664.09 70.42 620.27 70.42 620.27 92.33 664.09 92.33 664.09 158.05 598.36 158.05 598.36 136.15 642.18 136.15 642.18 114.24 598.36 114.24 598.36 48.51"/>
  <polygon class="st3" points="729.81 158.05 729.81 48.51 795.54 48.51 795.54 158.05 773.63 158.05 773.63 70.42 751.72 70.42 751.72 158.05 729.81 158.05"/>
  <polygon class="st3" points="817.45 48.51 883.17 48.51 883.17 70.42 839.35 70.42 839.35 136.15 861.26 136.15 861.26 92.33 883.17 92.33 883.17 158.05 817.45 158.05 817.45 48.51"/>
  <rect class="st0" x="379.28" y="4.7" width="284.81" height="21.91"/>
  <rect class="st3" x="686" y="48.51" width="21.91" height="109.54"/>
  <rect class="st3" x="686" y="4.7" width="21.91" height="21.91"/>
  <polygon class="st3" points="641.96 179.85 707.69 179.85 707.69 201.75 663.87 201.75 663.87 267.48 685.78 267.48 685.78 223.66 707.69 223.66 707.69 289.39 641.96 289.39 641.96 179.85"/>
  <path class="st3" d="M729.59,179.85h65.72v109.54h-21.91v-43.82h-21.91v43.82h-21.91v-109.54h0ZM773.41,223.66v-21.91h-21.91v21.91h21.91Z"/>
  <path class="st3" d="M817.23,179.85h65.72v65.72h-43.82v43.82h-21.91v-109.54h.01ZM861.04,223.66v-21.91h-21.91v21.91h21.91Z"/>
  <polygon class="st3" points="991.84 48.68 1057.57 48.68 1057.57 158.22 1035.66 158.22 1035.66 70.59 1013.75 70.59 1013.75 158.22 991.84 158.22 991.84 48.68"/>
  <polygon class="st3" points="1101.09 48.68 1166.81 48.68 1166.81 136.31 1276.36 136.31 1276.36 48.68 1342.08 48.68 1342.08 158.22 1320.17 158.22 1320.17 70.59 1298.26 70.59 1298.26 158.22 1144.91 158.22 1144.91 70.59 1123 70.59 1123 158.22 1101.09 158.22 1101.09 48.68"/>
  <path class="st3" d="M1188.72,114.41V48.68h65.72v65.72h-65.72ZM1232.54,92.5v-21.91h-21.91v21.91h21.91Z"/>
  <polygon class="st3" points="1386.51 48.39 1408.42 48.39 1408.42 136.02 1430.33 136.02 1430.33 157.93 1386.51 157.93 1386.51 48.39"/>
  <path class="st3" d="M1452.24,157.93V48.39h65.72v109.54h-21.91v-43.82h-21.91v43.82h-21.91.01ZM1496.05,92.21v-21.91h-21.91v21.91s21.91,0,21.91,0Z"/>
  <polygon class="st3" points="1539.87 48.39 1605.6 48.39 1605.6 70.3 1583.69 70.3 1583.69 157.93 1561.78 157.93 1561.78 70.3 1539.87 70.3 1539.87 48.39"/>
  <rect class="st3" x="1627.5" y="48.59" width="21.91" height="109.34"/>
  <rect class="st3" x="1627.72" y="4.24" width="21.91" height="21.91"/>
  <polygon class="st3" points="948.24 179.81 1013.97 179.81 1013.97 201.71 970.15 201.71 970.15 223.62 1013.97 223.62 1013.97 289.35 948.24 289.35 948.24 267.44 992.06 267.44 992.06 245.53 948.24 245.53 948.24 179.81"/>
  <polygon class="st3" points="1035.88 179.81 1101.6 179.81 1101.6 223.62 1079.69 223.62 1079.69 201.71 1057.79 201.71 1057.79 267.44 1079.69 267.44 1079.69 245.53 1101.6 245.53 1101.6 289.35 1035.88 289.35 1035.88 179.81"/>
  <polygon class="st3" points="1123.51 179.81 1189.24 179.81 1189.24 201.71 1189.24 223.62 1167.33 223.62 1167.33 201.71 1145.42 201.71 1145.42 289.35 1123.51 289.35 1123.51 179.81"/>
  <path class="st3" d="M1254.79,180.32h65.72v65.72h-43.82v43.82h-21.91v-109.54h.01ZM1298.61,224.14v-21.91h-21.91v21.91h21.91Z"/>
  <polygon class="st3" points="1342.43 180.32 1408.15 180.32 1408.15 202.23 1386.24 202.23 1386.24 289.86 1364.33 289.86 1364.33 202.23 1342.43 202.23 1342.43 180.32"/>
  <rect class="st3" x="948.54" y="5.11" width="21.91" height="21.91"/>
  <rect class="st0" x="992.53" y="4.79" width="613.24" height="21.06"/>
  <rect class="st3" x="948.54" y="48.93" width="21.91" height="109.54"/>
  <path class="st3" d="M1430.11,179.63h65.72v109.54h-87.63v-21.91h21.91v-87.63ZM1473.93,267.27v-65.72h-21.91v65.72h21.91Z"/>
  <path class="st3" d="M1517.75,179.63h65.72v109.54h-21.91v-43.82h-21.91v43.82h-21.91v-109.54h.01ZM1561.56,223.45v-21.91h-21.91v21.91h21.91Z"/>
  <polygon class="st3" points="1605.38 179.63 1671.1 179.63 1671.1 201.54 1649.19 201.54 1649.19 289.18 1627.29 289.18 1627.29 201.54 1605.38 201.54 1605.38 179.63"/>
  <path class="st3" d="M1693.01,289.18v-109.54h65.72v109.54h-21.91v-43.82h-21.91v43.82h-21.91.01ZM1714.92,223.45h21.91v-21.91h-21.91v21.91Z"/>
  <rect class="st3" x="1210.94" y="180.47" width="21.91" height="109.1"/>
  <rect class="st0" x="1210.33" y="136.31" width="21.86" height="21.86"/>
  <rect class="st0" x="379.28" y="311.32" width="503.67" height="21.91"/>
  <rect class="st0" x="1671.7" y="4.57" width="87.78" height="21.91"/>
  <polygon class="st3" points="1670.83 48.39 1736.56 48.39 1736.56 136.02 1758.46 136.02 1758.46 157.93 1736.56 157.93 1714.65 157.93 1714.65 70.3 1692.74 70.3 1692.74 157.93 1670.83 157.93 1670.83 48.39"/>
  <polygon class="st3" points="379.06 180.47 444.79 180.47 444.79 202.38 422.88 202.38 422.88 290.01 400.97 290.01 400.97 202.38 379.06 202.38 379.06 180.47"/>
  <polygon class="st3" points="466.7 180.69 466.7 290.01 488.6 290.01 488.6 246.2 510.51 246.2 510.51 290.01 532.42 290.01 532.42 180.47 510.51 180.47 510.51 224.29 488.6 224.29 488.6 180.47 466.7 180.69"/>
  <polygon class="st3" points="554.33 180.47 620.05 180.47 620.05 202.38 576.24 202.38 576.24 224.29 620.05 224.29 620.05 246.2 576.24 246.2 576.24 268.11 620.05 268.11 620.05 290.01 554.33 290.01 554.33 180.47"/>
  <polygon class="st0" points="729.59 4.58 926.77 4.58 926.77 311.3 1759.28 311.3 1759.28 333.2 904.86 333.2 904.86 26.49 729.59 26.49 729.59 4.58"/>
  <g>
    <polygon class="st1" points="120.78 5.94 161.39 5.1 174.59 44.3 154.61 106.93 101.06 68.93 88.44 30.26 120.78 5.94"/>
    <polygon class="st1" points="186.68 4.87 227.7 4.03 261 27.43 248.36 67.19 195.48 106.31 174.59 44.3 186.68 4.87"/>
    <polygon class="st1" points="253.29 111.84 272.82 48.93 306.48 23.94 340.1 47.56 353.46 87.1 319.9 111.35 253.29 111.84"/>
    <polygon class="st1" points="121.77 131.17 101.06 68.93 68.26 45.44 35.77 69.87 23.92 107.86 56.24 131.36 121.77 131.17"/>
    <polygon class="st1" points="109.76 170.12 56.82 209.44 17.05 209.8 4.2 171.08 16.25 132.46 56.24 131.36 109.76 170.12"/>
    <polygon class="st1" points="242.17 168.72 295.44 129.6 337.07 129.23 350.15 167.95 337.66 207.24 296.52 208.43 242.17 168.72"/>
    <polygon class="st1" points="122.47 208.85 56.82 209.44 25.05 233.03 37.59 271.69 70 295.16 101.71 271.88 122.47 208.85"/>
    <polygon class="st1" points="229.38 207.88 296.52 208.43 330 231.33 317.49 270.69 284.6 294.7 250.68 270.93 229.38 207.88"/>
    <polygon class="st1" points="154.57 233.06 101.71 271.88 90.72 310.17 123.74 334.08 163.6 333.72 175.31 294.21 154.57 233.06"/>
    <polygon class="st1" points="189.46 333.49 175.31 294.21 196.36 231.59 250.68 270.93 263.56 310.06 230.68 334.06 189.46 333.49"/>
    <polygon class="st2" points="121.77 131.17 147.04 131.01 154.61 106.93 175.14 121.57 195.48 106.31 203.59 130.38 228.83 130.1 220.82 153.79 242.17 168.72 221.6 183.83 229.38 207.88 203.55 208.11 196.36 231.59 176.2 217.17 154.57 233.06 147.84 208.56 122.47 208.85 130.28 184.32 109.76 170.12 130.02 155.07 121.77 131.17"/>
  </g>
</svg>