<?xml version="1.0" encoding="UTF-8"?>
<svg id="Layer_1" xmlns="http://www.w3.org/2000/svg" version="1.1" viewBox="0 0 1752.47 338.1">
  <!-- Generator: Adobe Illustrator 29.4.0, SVG Export Plug-In . SVG Version: 2.1.0 Build 152)  -->
  <defs>
    <style>
      .st0, .st1 {
        fill: #f1945a;
      }

      .st2 {
        fill: #2e485d;
      }

      .st2, .st1 {
        stroke: #fff;
        stroke-miterlimit: 10;
        stroke-width: 8px;
      }

      .st3 {
        fill: #fff;
      }
    </style>
  </defs>
  <polygon class="st3" points="372.28 48.51 438.01 48.51 438.01 92.33 416.1 92.33 416.1 70.42 394.19 70.42 394.19 136.15 416.1 136.15 416.1 114.24 438.01 114.24 438.01 158.05 372.28 158.05 372.28 48.51"/>
  <polygon class="st3" points="459.91 48.51 481.82 48.51 481.82 136.15 569.46 136.15 569.46 158.05 459.91 158.05 459.91 48.51"/>
  <path class="st3" d="M569.46,48.51v65.72h-65.72V48.51h65.72ZM525.64,92.33h21.91v-21.91h-21.91v21.91Z"/>
  <polygon class="st3" points="591.36 48.51 657.09 48.51 657.09 70.42 613.27 70.42 613.27 92.33 657.09 92.33 657.09 158.05 591.36 158.05 591.36 136.15 635.18 136.15 635.18 114.24 591.36 114.24 591.36 48.51"/>
  <polygon class="st3" points="722.81 158.05 722.81 48.51 788.54 48.51 788.54 158.05 766.63 158.05 766.63 70.42 744.72 70.42 744.72 158.05 722.81 158.05"/>
  <polygon class="st3" points="810.45 48.51 876.17 48.51 876.17 70.42 832.35 70.42 832.35 136.15 854.26 136.15 854.26 92.33 876.17 92.33 876.17 158.05 810.45 158.05 810.45 48.51"/>
  <rect class="st0" x="372.28" y="4.7" width="284.81" height="21.91"/>
  <rect class="st3" x="679" y="48.51" width="21.91" height="109.54"/>
  <rect class="st3" x="679" y="4.7" width="21.91" height="21.91"/>
  <polygon class="st3" points="634.96 179.85 700.69 179.85 700.69 201.75 656.87 201.75 656.87 267.48 678.78 267.48 678.78 223.66 700.69 223.66 700.69 289.39 634.96 289.39 634.96 179.85"/>
  <path class="st3" d="M722.59,179.85h65.72v109.54h-21.91v-43.82h-21.91v43.82h-21.91v-109.54ZM766.41,223.66v-21.91h-21.91v21.91h21.91Z"/>
  <path class="st3" d="M810.23,179.85h65.72v65.72h-43.82v43.82h-21.91v-109.54ZM854.04,223.66v-21.91h-21.91v21.91h21.91Z"/>
  <polygon class="st3" points="984.84 48.68 1050.57 48.68 1050.57 158.22 1028.66 158.22 1028.66 70.59 1006.75 70.59 1006.75 158.22 984.84 158.22 984.84 48.68"/>
  <polygon class="st3" points="1094.09 48.68 1159.81 48.68 1159.81 136.31 1269.36 136.31 1269.36 48.68 1335.08 48.68 1335.08 158.22 1313.17 158.22 1313.17 70.59 1291.26 70.59 1291.26 158.22 1137.91 158.22 1137.91 70.59 1116 70.59 1116 158.22 1094.09 158.22 1094.09 48.68"/>
  <path class="st3" d="M1181.72,114.41V48.68h65.72v65.72h-65.72ZM1225.54,92.5v-21.91h-21.91v21.91h21.91Z"/>
  <polygon class="st3" points="1379.51 48.39 1401.42 48.39 1401.42 136.02 1423.33 136.02 1423.33 157.93 1379.51 157.93 1379.51 48.39"/>
  <path class="st3" d="M1445.24,157.93V48.39h65.72v109.54h-21.91v-43.82h-21.91v43.82h-21.91ZM1489.05,92.21v-21.91h-21.91v21.91h21.91Z"/>
  <polygon class="st3" points="1532.87 48.39 1598.6 48.39 1598.6 70.3 1576.69 70.3 1576.69 157.93 1554.78 157.93 1554.78 70.3 1532.87 70.3 1532.87 48.39"/>
  <rect class="st3" x="1620.5" y="48.59" width="21.91" height="109.34"/>
  <rect class="st3" x="1620.72" y="4.24" width="21.91" height="21.91"/>
  <polygon class="st3" points="941.24 179.81 1006.97 179.81 1006.97 201.71 963.15 201.71 963.15 223.62 1006.97 223.62 1006.97 289.35 941.24 289.35 941.24 267.44 985.06 267.44 985.06 245.53 941.24 245.53 941.24 179.81"/>
  <polygon class="st3" points="1028.88 179.81 1094.6 179.81 1094.6 223.62 1072.69 223.62 1072.69 201.71 1050.79 201.71 1050.79 267.44 1072.69 267.44 1072.69 245.53 1094.6 245.53 1094.6 289.35 1028.88 289.35 1028.88 179.81"/>
  <polygon class="st3" points="1116.51 179.81 1182.24 179.81 1182.24 201.71 1182.24 223.62 1160.33 223.62 1160.33 201.71 1138.42 201.71 1138.42 289.35 1116.51 289.35 1116.51 179.81"/>
  <path class="st3" d="M1247.79,180.32h65.72v65.72h-43.82v43.82h-21.91v-109.54ZM1291.61,224.14v-21.91h-21.91v21.91h21.91Z"/>
  <polygon class="st3" points="1335.43 180.32 1401.15 180.32 1401.15 202.23 1379.24 202.23 1379.24 289.86 1357.33 289.86 1357.33 202.23 1335.43 202.23 1335.43 180.32"/>
  <rect class="st3" x="941.54" y="5.11" width="21.91" height="21.91"/>
  <rect class="st0" x="985.53" y="4.79" width="613.24" height="21.06"/>
  <rect class="st3" x="941.54" y="48.93" width="21.91" height="109.54"/>
  <path class="st3" d="M1423.11,179.63h65.72v109.54h-87.63v-21.91h21.91v-87.63ZM1466.93,267.27v-65.72h-21.91v65.72h21.91Z"/>
  <path class="st3" d="M1510.75,179.63h65.72v109.54h-21.91v-43.82h-21.91v43.82h-21.91v-109.54ZM1554.56,223.45v-21.91h-21.91v21.91h21.91Z"/>
  <polygon class="st3" points="1598.38 179.63 1664.1 179.63 1664.1 201.54 1642.19 201.54 1642.19 289.18 1620.29 289.18 1620.29 201.54 1598.38 201.54 1598.38 179.63"/>
  <path class="st3" d="M1686.01,289.18v-109.54h65.72v109.54h-21.91v-43.82h-21.91v43.82h-21.91ZM1707.92,223.45h21.91v-21.91h-21.91v21.91Z"/>
  <rect class="st3" x="1203.94" y="180.47" width="21.91" height="109.1"/>
  <rect class="st0" x="1203.33" y="136.31" width="21.86" height="21.86"/>
  <rect class="st0" x="372.28" y="311.32" width="503.67" height="21.91"/>
  <rect class="st0" x="1664.7" y="4.57" width="87.78" height="21.91"/>
  <polygon class="st3" points="1663.83 48.39 1729.56 48.39 1729.56 136.02 1751.46 136.02 1751.46 157.93 1729.56 157.93 1707.65 157.93 1707.65 70.3 1685.74 70.3 1685.74 157.93 1663.83 157.93 1663.83 48.39"/>
  <polygon class="st3" points="372.06 180.47 437.79 180.47 437.79 202.38 415.88 202.38 415.88 290.01 393.97 290.01 393.97 202.38 372.06 202.38 372.06 180.47"/>
  <polygon class="st3" points="459.7 180.69 459.7 290.01 481.6 290.01 481.6 246.2 503.51 246.2 503.51 290.01 525.42 290.01 525.42 180.47 503.51 180.47 503.51 224.29 481.6 224.29 481.6 180.47 459.7 180.69"/>
  <polygon class="st3" points="547.33 180.47 613.05 180.47 613.05 202.38 569.24 202.38 569.24 224.29 613.05 224.29 613.05 246.2 569.24 246.2 569.24 268.11 613.05 268.11 613.05 290.01 547.33 290.01 547.33 180.47"/>
  <polygon class="st0" points="722.59 4.58 919.77 4.58 919.77 311.3 1752.28 311.3 1752.28 333.2 897.86 333.2 897.86 26.49 722.59 26.49 722.59 4.58"/>
  <g>
    <polygon class="st1" points="120.78 5.94 161.39 5.1 174.59 44.3 154.61 106.93 101.06 68.93 88.44 30.26 120.78 5.94"/>
    <polygon class="st1" points="186.68 4.87 227.7 4.03 261 27.43 248.36 67.19 195.48 106.31 174.59 44.3 186.68 4.87"/>
    <polygon class="st1" points="249.29 115.84 268.82 52.93 302.48 27.94 336.1 51.56 349.46 91.1 315.9 115.35 249.29 115.84"/>
    <polygon class="st1" points="121.77 131.17 101.06 68.93 68.26 45.44 35.77 69.87 23.92 107.86 56.24 131.36 121.77 131.17"/>
    <polygon class="st1" points="109.76 170.12 56.82 209.44 17.05 209.8 4.2 171.08 16.25 132.46 56.24 131.36 109.76 170.12"/>
    <polygon class="st1" points="242.17 168.72 295.44 129.6 337.07 129.23 350.15 167.95 337.66 207.24 296.52 208.43 242.17 168.72"/>
    <polygon class="st1" points="122.47 208.85 56.82 209.44 25.05 233.03 37.59 271.69 70 295.16 101.71 271.88 122.47 208.85"/>
    <polygon class="st1" points="229.38 207.88 296.52 208.43 330 231.33 317.49 270.69 284.6 294.7 250.68 270.93 229.38 207.88"/>
    <polygon class="st1" points="154.57 233.06 101.71 271.88 90.72 310.17 123.74 334.08 163.6 333.72 175.31 294.21 154.57 233.06"/>
    <polygon class="st1" points="189.46 333.49 175.31 294.21 196.36 231.59 250.68 270.93 263.56 310.06 230.68 334.06 189.46 333.49"/>
    <polygon class="st2" points="121.77 131.17 147.04 131.01 154.61 106.93 175.14 121.57 195.48 106.31 203.59 130.38 228.83 130.1 220.82 153.79 242.17 168.72 221.6 183.83 229.38 207.88 203.55 208.11 196.36 231.59 176.2 217.17 154.57 233.06 147.84 208.56 122.47 208.85 130.28 184.32 109.76 170.12 130.02 155.07 121.77 131.17"/>
  </g>
</svg>