<?xml version="1.0" encoding="UTF-8"?>
<svg id="Layer_1" xmlns="http://www.w3.org/2000/svg" version="1.1" viewBox="0 0 429.9 410.1">
  <!-- Generator: Adobe Illustrator 29.2.1, SVG Export Plug-In . SVG Version: 2.1.0 Build 116)  -->
  <defs>
    <style>
      .st0 {
        fill: #f2955a;
      }
    </style>
  </defs>
  <g>
    <path class="st0" d="M385.5,143l44-31.8-17.6-51.8-44-31-44,32.8-25.7,82.5,87.3-.6ZM329.9,65.5l38.2-28.4,38,26.8,15.2,44.8-38,27.4-75.5.6,22.1-71.1Z"/>
    <path class="st0" d="M429.9,203.7l-17.2-50.8-54.5.5-64,47-21.9-15.4,10.5-31.1-33.2.3-8.3-24.5,63.5-47,16.5-52.1L277.6,0l-53.7,1.2-12.3,40.1L198.2,1.3l-53.3,1.2-42.4,31.9,12.9,39.4-33.5-24-42.7,32-15.5,49.9,33.1,24.1-41.1,1.2L0,207.7l16.9,50.7,40.3-.3-32.2,23.9,16.5,50.7,42.5,30.9,32.6-23.9-11.3,39.2,43.2,31.3,52.4-.4,12-40.5,14.4,40.2,54,.8,43.1-31.5-13.2-40.2,34.8,24.4,43.1-31.4,16.4-51.7-34.2-23.3,42-1.3,16.3-51.5ZM149.8,155.3l-21.1-63.4,54.6,38.7-7.8,24.5-25.7.2ZM144.8,162.3l8.4,24.4-20.6,15.3-54.6-39.6,66.8-.2ZM132.7,210.7l20.9,14.4-8,25.1-66.9.6,54.1-40.1ZM150.6,257.2l25.8-.3,6.9,25.1-53.8,39.5,21.1-64.2ZM297.9,320.3l-55.4-40.1,7.2-23.9,26.5-.3,21.7,64.2ZM281.2,249l-7.9-24.6,21-15.4,55.5,40.6-68.6-.6ZM273.1,161.1l-9.1,26.7,24.3,17-23.2,17,8.8,27.2h0s0,0,0,0l-29.3.3-8,26.5-22.7-16.3-24.4,18-7.6-27.7-28.8.4,8.9-27.8-23.2-16,22.8-17-9.3-27,28.5-.2,8.6-27.2,23.3,16.6,23-17.2,9.2,27.1,28.4-.3ZM234.2,282.9l-21.6,64.1-21.2-62.4,22.4-16.5,20.4,14.7ZM191.5,127.9l20.4-63.9,21.3,63.3-20.7,15.5-20.9-14.9ZM229.2,8.1l46.3-1,37.7,26.5-14.3,45.1-59.8,44.3-23.6-70.2,13.7-44.6ZM147.3,9.4l45.9-1,14.9,44.4-22.6,70.8h0s0,0,0,0l-60.5-43-14.3-43.7,36.6-27.5ZM45.2,86l36.7-27.6,37.1,26.5h0s0,0,0,0l23.4,70.3-74.1.2-36.5-26.6,13.3-42.9ZM7.4,207.6l13.6-43.7,45.1-1.3,60.6,43.9-60,44.5-44.8.4-14.5-43.7ZM84,354.8l-36.5-26.5-14.3-43.7,35.9-26.6,74.2-.6-23.4,71.3-35.8,26.2ZM195.8,402.7l-45,.4-37.4-27.1,12.4-43.2,59.4-43.7h0s.3-.2.3-.2l23.5,69h0s0,0,0,0l-13.2,44.7ZM279.2,403.1l-46.8-.7-16-44.6,23.8-70.7,61.5,44.5,14.6,44.3-37.1,27.1ZM397.5,282.5l-14.2,44.5-37.3,27.2-38.4-26.9-24.1-71.2,76,.6h0s0,0,0,0l37.8,25.8ZM361.8,249.7l-61.6-45h0c0,0,0,0,0,0l60.3-44.2,47.1-.5,14.8,43.8-14.1,44.5-46.6,1.4Z"/>
  </g>
  <g>
    <path class="st0" d="M385.5,143l44-31.8-17.6-51.8-44-31-44,32.8-25.7,82.5,87.3-.6ZM329.9,65.5l38.2-28.4,38,26.8,15.2,44.8-38,27.4-75.5.6,22.1-71.1Z"/>
    <path class="st0" d="M429.9,203.7l-17.2-50.8-54.5.5-64,47-21.9-15.4,10.5-31.1-33.2.3-8.3-24.5,63.5-47,16.5-52.1L277.6,0l-53.7,1.2-12.3,40.1L198.2,1.3l-53.3,1.2-42.4,31.9,12.9,39.4-33.5-24-42.7,32-15.5,49.9,33.1,24.1-41.1,1.2L0,207.7l16.9,50.7,40.3-.3-32.2,23.9,16.5,50.7,42.5,30.9,32.6-23.9-11.3,39.2,43.2,31.3,52.4-.4,12-40.5,14.4,40.2,54,.8,43.1-31.5-13.2-40.2,34.8,24.4,43.1-31.4,16.4-51.7-34.2-23.3,42-1.3,16.3-51.5ZM149.8,155.3l-21.1-63.4,54.6,38.7-7.8,24.5-25.7.2ZM144.8,162.3l8.4,24.4-20.6,15.3-54.6-39.6,66.8-.2ZM132.7,210.7l20.9,14.4-8,25.1-66.9.6,54.1-40.1ZM150.6,257.2l25.8-.3,6.9,25.1-53.8,39.5,21.1-64.2ZM297.9,320.3l-55.4-40.1,7.2-23.9,26.5-.3,21.7,64.2ZM281.2,249l-7.9-24.6,21-15.4,55.5,40.6-68.6-.6ZM273.1,161.1l-9.1,26.7,24.3,17-23.2,17,8.8,27.2h0s0,0,0,0l-29.3.3-8,26.5-22.7-16.3-24.4,18-7.6-27.7-28.8.4,8.9-27.8-23.2-16,22.8-17-9.3-27,28.5-.2,8.6-27.2,23.3,16.6,23-17.2,9.2,27.1,28.4-.3ZM234.2,282.9l-21.6,64.1-21.2-62.4,22.4-16.5,20.4,14.7ZM191.5,127.9l20.4-63.9,21.3,63.3-20.7,15.5-20.9-14.9ZM229.2,8.1l46.3-1,37.7,26.5-14.3,45.1-59.8,44.3-23.6-70.2,13.7-44.6ZM147.3,9.4l45.9-1,14.9,44.4-22.6,70.8h0s0,0,0,0l-60.5-43-14.3-43.7,36.6-27.5ZM45.2,86l36.7-27.6,37.1,26.5h0s0,0,0,0l23.4,70.3-74.1.2-36.5-26.6,13.3-42.9ZM7.4,207.6l13.6-43.7,45.1-1.3,60.6,43.9-60,44.5-44.8.4-14.5-43.7ZM84,354.8l-36.5-26.5-14.3-43.7,35.9-26.6,74.2-.6-23.4,71.3-35.8,26.2ZM195.8,402.7l-45,.4-37.4-27.1,12.4-43.2,59.4-43.7h0s.3-.2.3-.2l23.5,69h0s0,0,0,0l-13.2,44.7ZM279.2,403.1l-46.8-.7-16-44.6,23.8-70.7,61.5,44.5,14.6,44.3-37.1,27.1ZM397.5,282.5l-14.2,44.5-37.3,27.2-38.4-26.9-24.1-71.2,76,.6h0s0,0,0,0l37.8,25.8ZM361.8,249.7l-61.6-45h0c0,0,0,0,0,0l60.3-44.2,47.1-.5,14.8,43.8-14.1,44.5-46.6,1.4Z"/>
  </g>
</svg>